<svg xmlns="http://www.w3.org/2000/svg" version="1.1" xmlns:xlink="http://www.w3.org/1999/xlink" xmlns:svgjs="http://svgjs.dev/svgjs" width="2000" height="1247" viewBox="0 0 2000 1247"><g transform="matrix(1,0,0,1,-1.2121212121212466,0.504858299595071)"><svg viewBox="0 0 396 247" data-background-color="#68c3a3" preserveAspectRatio="xMidYMid meet" height="1247" width="2000" xmlns="http://www.w3.org/2000/svg" xmlns:xlink="http://www.w3.org/1999/xlink"><g id="tight-bounds" transform="matrix(1,0,0,1,0.2400000000000091,-0.09999999999999432)"><svg viewBox="0 0 395.52 247.2" height="247.2" width="395.52"><g><svg></svg></g><g><svg viewBox="0 0 395.52 247.2" height="247.2" width="395.52"><g transform="matrix(1,0,0,1,75.54432,94.5330453302557)"><svg viewBox="0 0 244.43135999999998 58.13390933948859" height="58.13390933948859" width="244.43135999999998"><g><svg viewBox="0 0 331.357330316992 78.80779700126443" height="58.13390933948859" width="244.43135999999998"><g transform="matrix(1,0,0,1,86.92597031699198,22.22785779629582)"><svg viewBox="0 0 244.43135999999998 34.352081408672795" height="34.352081408672795" width="244.43135999999998"><g id="textblocktransform"><svg viewBox="0 0 244.43135999999998 34.352081408672795" height="34.352081408672795" width="244.43135999999998" id="textblock"><g><svg viewBox="0 0 244.43135999999998 34.352081408672795" height="34.352081408672795" width="244.43135999999998"><g transform="matrix(1,0,0,1,0,0)"><svg width="244.43135999999998" viewBox="3.47 -39.11 371.53999999999996 52.22" height="34.352081408672795" data-palette-color="#403d3d"><path d="M21.14-31.47L17.55 0 11.5 0 15.09-31.47 3.47-31.47 4.76-35.77 33.62-35.77 32.32-31.47 21.14-31.47ZM30.88 0L33.84-25.88 38.67-25.88Q38.62-23.83 38.61-21.81 38.6-19.8 38.57-17.77L38.57-17.77Q39.33-19.17 40.23-20.68 41.14-22.19 42.23-23.45 43.33-24.71 44.7-25.54 46.07-26.37 47.78-26.37L47.78-26.37Q48.48-26.37 49.16-26.21 49.83-26.05 50.27-25.71L50.27-25.71 49.02-20.07Q48.46-20.19 47.98-20.23 47.51-20.26 47.04-20.26L47.04-20.26Q45.58-20.26 44.39-19.78 43.21-19.29 42.19-18.41 41.16-17.53 40.23-16.27 39.3-15.01 38.35-13.48L38.35-13.48 36.81 0 30.88 0ZM61.98 0.49L61.98 0.49Q59.3 0.49 57.29-0.42 55.29-1.32 53.96-2.84 52.63-4.37 51.97-6.38 51.31-8.4 51.31-10.64L51.31-10.64Q51.31-13.82 52.55-16.67 53.78-19.53 55.9-21.68 58.03-23.83 60.85-25.1 63.67-26.37 66.84-26.37L66.84-26.37Q69.55-26.37 71.55-25.46 73.55-24.56 74.89-23.02 76.22-21.48 76.87-19.46 77.53-17.43 77.53-15.19L77.53-15.19Q77.53-11.96 76.29-9.12 75.04-6.27 72.91-4.14 70.77-2 67.95-0.76 65.13 0.49 61.98 0.49ZM63.4-3.74L63.4-3.74Q64.94-3.74 66.34-4.53 67.74-5.32 68.82-6.7 69.89-8.08 70.54-9.96 71.19-11.84 71.19-14.04L71.19-14.04Q71.19-15.65 70.82-17.11 70.45-18.58 69.72-19.69 68.99-20.8 67.9-21.47 66.82-22.14 65.4-22.14L65.4-22.14Q63.84-22.14 62.43-21.34 61.03-20.53 59.96-19.12 58.88-17.7 58.25-15.81 57.61-13.92 57.61-11.77L57.61-11.77Q57.61-10.16 57.99-8.69 58.37-7.23 59.1-6.13 59.83-5.03 60.91-4.38 61.98-3.74 63.4-3.74ZM89.91-25.88L90.1-20.34Q91.3-21.7 92.46-22.81 93.62-23.93 94.82-24.72 96.01-25.51 97.27-25.94 98.53-26.37 99.92-26.37L99.92-26.37Q101.92-26.37 103.47-25.49 105.02-24.61 106.08-23.13 107.15-21.66 107.7-19.71 108.24-17.77 108.24-15.65L108.24-15.65Q108.24-13.31 107.6-11.19 106.95-9.08 105.82-7.28 104.68-5.47 103.13-4.02 101.58-2.56 99.75-1.55 97.92-0.54 95.9-0.01 93.89 0.51 91.84 0.46L91.84 0.46Q90.74 0.44 89.75 0.27 88.76 0.1 88.08-0.1L88.08-0.1 86.56 13.11 80.66 13.11 85.1-25.88 89.91-25.88ZM89.96-16.46L88.62-4.81Q89.76-4.17 90.96-3.96 92.16-3.74 93.01-3.74L93.01-3.74Q94.89-3.74 96.51-4.54 98.14-5.35 99.35-6.79 100.55-8.23 101.25-10.23 101.95-12.23 101.95-14.62L101.95-14.62Q101.95-16.11 101.65-17.43 101.36-18.75 100.8-19.74 100.24-20.73 99.37-21.29 98.5-21.85 97.38-21.85L97.38-21.85Q96.45-21.85 95.5-21.46 94.55-21.07 93.6-20.36 92.64-19.65 91.73-18.65 90.81-17.65 89.96-16.46L89.96-16.46ZM112.81 0L115.76-25.88 121.67-25.88 118.72 0 112.81 0ZM119.28-30.98L119.28-30.98Q117.81-30.98 116.96-31.84 116.1-32.69 116.1-33.98L116.1-33.98Q116.1-34.77 116.43-35.46 116.76-36.16 117.32-36.67 117.89-37.18 118.63-37.48 119.37-37.77 120.2-37.77L120.2-37.77Q120.89-37.77 121.47-37.54 122.06-37.3 122.46-36.89 122.87-36.47 123.1-35.91 123.33-35.35 123.33-34.72L123.33-34.72Q123.33-33.91 123-33.23 122.67-32.54 122.12-32.04 121.57-31.54 120.83-31.26 120.08-30.98 119.28-30.98ZM145.25-5.79L145.25-3Q142.88-1.12 140.65-0.32 138.42 0.49 136.27 0.49L136.27 0.49Q134.02 0.49 132.18-0.31 130.33-1.1 129.02-2.54 127.7-3.98 126.98-6.02 126.26-8.06 126.26-10.52L126.26-10.52Q126.26-12.74 126.84-14.79 127.43-16.85 128.5-18.6 129.58-20.36 131.04-21.79 132.51-23.22 134.29-24.24 136.07-25.27 138.07-25.82 140.08-26.37 142.2-26.37L142.2-26.37Q143.57-26.37 145.14-26.1 146.72-25.83 148.01-25.27L148.01-25.27 146.45-20.8 145.91-20.56Q145.08-21.19 143.76-21.67 142.44-22.14 140.98-22.14L140.98-22.14Q139.34-22.14 137.83-21.44 136.32-20.73 135.14-19.38 133.97-18.04 133.28-16.14 132.58-14.23 132.58-11.87L132.58-11.87Q132.58-9.84 133.09-8.35 133.61-6.86 134.52-5.9 135.44-4.93 136.67-4.47 137.9-4 139.37-4L139.37-4Q140.76-4 142.24-4.42 143.71-4.83 145.25-5.79L145.25-5.79ZM168.34-9.42L169.69-21.07Q168.56-21.7 167.5-21.92 166.44-22.14 165.66-22.14L165.66-22.14Q163.93-22.14 162.31-21.35 160.7-20.56 159.46-19.09 158.21-17.63 157.47-15.58 156.72-13.53 156.72-11.01L156.72-11.01Q156.72-9.62 156.98-8.35 157.24-7.08 157.76-6.12 158.29-5.15 159.1-4.58 159.92-4 161.07-4L161.07-4Q162-4 162.92-4.39 163.85-4.79 164.78-5.51 165.71-6.23 166.6-7.21 167.49-8.2 168.34-9.42L168.34-9.42ZM176.23-26.39L173.2 0 168.39 0 168.2-5.52Q167-4.15 165.87-3.05 164.73-1.95 163.56-1.16 162.39-0.37 161.15 0.06 159.92 0.49 158.53 0.49L158.53 0.49Q156.53 0.49 155.01-0.39 153.5-1.27 152.49-2.73 151.47-4.2 150.96-6.1 150.45-8.01 150.45-10.08L150.45-10.08Q150.45-12.45 151.11-14.59 151.77-16.72 152.91-18.53 154.06-20.34 155.62-21.79 157.19-23.24 158.98-24.26 160.78-25.27 162.74-25.82 164.71-26.37 166.66-26.37L166.66-26.37Q169.44-26.37 172.52-25.12L172.52-25.12 176.23-26.39ZM181.28 0L185.75-39.11 191.68-39.11 187.21 0 181.28 0ZM224.46-31.47L220.88 0 214.82 0 218.41-31.47 206.79-31.47 208.08-35.77 236.94-35.77 235.65-31.47 224.46-31.47ZM251.07-9.42L252.42-21.07Q251.29-21.7 250.23-21.92 249.17-22.14 248.39-22.14L248.39-22.14Q246.65-22.14 245.04-21.35 243.43-20.56 242.19-19.09 240.94-17.63 240.2-15.58 239.45-13.53 239.45-11.01L239.45-11.01Q239.45-9.62 239.71-8.35 239.97-7.08 240.49-6.12 241.02-5.15 241.83-4.58 242.65-4 243.8-4L243.8-4Q244.73-4 245.65-4.39 246.58-4.79 247.51-5.51 248.44-6.23 249.33-7.21 250.22-8.2 251.07-9.42L251.07-9.42ZM258.96-26.39L255.93 0 251.12 0 250.93-5.52Q249.73-4.15 248.6-3.05 247.46-1.95 246.29-1.16 245.12-0.37 243.88 0.06 242.65 0.49 241.26 0.49L241.26 0.49Q239.26 0.49 237.74-0.39 236.23-1.27 235.22-2.73 234.2-4.2 233.69-6.1 233.18-8.01 233.18-10.08L233.18-10.08Q233.18-12.45 233.84-14.59 234.5-16.72 235.64-18.53 236.79-20.34 238.35-21.79 239.92-23.24 241.71-24.26 243.51-25.27 245.47-25.82 247.44-26.37 249.39-26.37L249.39-26.37Q252.17-26.37 255.25-25.12L255.25-25.12 258.96-26.39ZM264.01 0L266.96-25.88 271.8-25.88 271.95-19.87Q273.09-21.19 274.28-22.38 275.46-23.56 276.73-24.44 278-25.32 279.39-25.84 280.78-26.37 282.37-26.37L282.37-26.37Q284.27-26.37 285.63-25.65 286.98-24.93 287.83-23.71 288.67-22.49 288.97-20.9 289.28-19.31 289.08-17.6L289.08-17.6 287.08 0 281.15 0 283.1-17.04Q283.2-18.02 283.07-18.9 282.93-19.78 282.53-20.43 282.13-21.09 281.45-21.47 280.78-21.85 279.86-21.85L279.86-21.85Q278.85-21.85 277.8-21.4 276.75-20.95 275.72-20.15 274.68-19.36 273.68-18.27 272.68-17.19 271.77-15.92L271.77-15.92 269.94 0 264.01 0ZM293.84-1.39L295.4-5.83 295.89-6.13Q297.65-5 299.57-4.37 301.48-3.74 303.22-3.74L303.22-3.74Q304.29-3.74 305.16-3.99 306.02-4.25 306.64-4.68 307.25-5.1 307.57-5.68 307.9-6.25 307.9-6.88L307.9-6.88Q307.9-7.67 307.42-8.26 306.93-8.86 306.12-9.36 305.32-9.86 304.29-10.31 303.27-10.77 302.19-11.27 301.12-11.77 300.09-12.37 299.07-12.96 298.26-13.73 297.46-14.5 296.97-15.52 296.48-16.53 296.48-17.85L296.48-17.85Q296.48-19.48 297.27-21.02 298.07-22.56 299.54-23.75 301.02-24.95 303.12-25.66 305.22-26.37 307.81-26.37L307.81-26.37Q309.35-26.37 311.18-26.09 313.01-25.81 314.55-25.2L314.55-25.2 312.98-20.78 312.42-20.46Q311.08-21.29 309.49-21.72 307.9-22.14 306.51-22.14L306.51-22.14Q305.44-22.14 304.6-21.89 303.75-21.63 303.17-21.2 302.58-20.78 302.28-20.21 301.97-19.65 301.97-19.02L301.97-19.02Q301.97-17.92 302.83-17.18 303.68-16.43 304.97-15.8 306.27-15.16 307.76-14.54 309.25-13.92 310.54-13.06 311.84-12.21 312.69-11 313.54-9.79 313.54-8.03L313.54-8.03Q313.54-6.37 312.74-4.85 311.93-3.32 310.44-2.12 308.95-0.93 306.85-0.22 304.76 0.49 302.19 0.49L302.19 0.49Q300.12 0.49 297.94 0 295.77-0.49 293.84-1.39L293.84-1.39ZM326.87-25.88L327.07-20.34Q328.26-21.7 329.42-22.81 330.58-23.93 331.78-24.72 332.98-25.51 334.23-25.94 335.49-26.37 336.88-26.37L336.88-26.37Q338.88-26.37 340.43-25.49 341.98-24.61 343.05-23.13 344.11-21.66 344.66-19.71 345.21-17.77 345.21-15.65L345.21-15.65Q345.21-13.31 344.56-11.19 343.91-9.08 342.78-7.28 341.64-5.47 340.09-4.02 338.54-2.56 336.71-1.55 334.88-0.54 332.87-0.01 330.85 0.51 328.8 0.46L328.8 0.46Q327.7 0.44 326.71 0.27 325.72 0.1 325.04-0.1L325.04-0.1 323.53 13.11 317.62 13.11 322.06-25.88 326.87-25.88ZM326.92-16.46L325.58-4.81Q326.73-4.17 327.92-3.96 329.12-3.74 329.97-3.74L329.97-3.74Q331.85-3.74 333.48-4.54 335.1-5.35 336.31-6.79 337.52-8.23 338.21-10.23 338.91-12.23 338.91-14.62L338.91-14.62Q338.91-16.11 338.61-17.43 338.32-18.75 337.76-19.74 337.2-20.73 336.33-21.29 335.47-21.85 334.34-21.85L334.34-21.85Q333.41-21.85 332.46-21.46 331.51-21.07 330.56-20.36 329.61-19.65 328.69-18.65 327.78-17.65 326.92-16.46L326.92-16.46ZM367.13-9.42L368.47-21.07Q367.35-21.7 366.29-21.92 365.22-22.14 364.44-22.14L364.44-22.14Q362.71-22.14 361.1-21.35 359.49-20.56 358.24-19.09 357-17.63 356.25-15.58 355.51-13.53 355.51-11.01L355.51-11.01Q355.51-9.62 355.76-8.35 356.02-7.08 356.54-6.12 357.07-5.15 357.89-4.58 358.71-4 359.85-4L359.85-4Q360.78-4 361.71-4.39 362.64-4.79 363.56-5.51 364.49-6.23 365.38-7.21 366.27-8.2 367.13-9.42L367.13-9.42ZM375.01-26.39L371.99 0 367.18 0 366.98-5.52Q365.79-4.15 364.65-3.05 363.51-1.95 362.34-1.16 361.17-0.37 359.94 0.06 358.71 0.49 357.31 0.49L357.31 0.49Q355.31 0.49 353.8-0.39 352.28-1.27 351.27-2.73 350.26-4.2 349.75-6.1 349.23-8.01 349.23-10.08L349.23-10.08Q349.23-12.45 349.89-14.59 350.55-16.72 351.7-18.53 352.85-20.34 354.41-21.79 355.97-23.24 357.77-24.26 359.56-25.27 361.53-25.82 363.49-26.37 365.44-26.37L365.44-26.37Q368.23-26.37 371.3-25.12L371.3-25.12 375.01-26.39Z" opacity="1" transform="matrix(1,0,0,1,0,0)" fill="#403d3d" class="wordmark-text-0" data-fill-palette-color="primary" id="text-0"></path></svg></g></svg></g></svg></g></svg></g><g><svg viewBox="0 0 78.81626834635814 78.80779700126443" height="78.80779700126443" width="78.81626834635814"><g><svg xmlns="http://www.w3.org/2000/svg" data-name="Layer 3" viewBox="0.9932282431667653 0.9998928667618785 62.00677175683323 62.000107133238124" x="0" y="0" height="78.80779700126443" width="78.81626834635814" class="icon-icon-0" data-fill-palette-color="accent" id="icon-0"><path d="M52.2 32.6a1 1 0 0 0 0.8 0.4 0.94 0.94 0 0 0 0.43-0.1A1 1 0 0 0 54 31.76l-2-8.19A15.15 15.15 0 0 0 42.29 13a42.31 42.31 0 0 1 13.15-0.29l2.43 0.32a1 1 0 0 0 0.64-1.85l-6.66-4A15.06 15.06 0 0 0 44.11 5h-0.67c-0.33 0-0.66 0-1 0l5.87-2.1A1 1 0 0 0 48 1H42A13 13 0 0 0 30 9 13 13 0 0 0 18 1H12a1 1 0 0 0-1 0.83 1 1 0 0 0 0.65 1.11L17.54 5c-0.33 0-0.65 0-1 0h-0.68A15.05 15.05 0 0 0 8.15 7.14l-6.67 4a1 1 0 0 0-0.43 1.19A1 1 0 0 0 2.13 13l2.43-0.32A42.31 42.31 0 0 1 17.71 13 15.15 15.15 0 0 0 8.08 23.57L6 31.76a1 1 0 0 0 0.54 1.14A0.94 0.94 0 0 0 7 33a1 1 0 0 0 0.8-0.4l0.08-0.11A48.15 48.15 0 0 1 22.37 19.65a3.92 3.92 0 0 0 1.7 1.83A49.12 49.12 0 0 0 15 49.8v4A6 6 0 0 0 6.8 56 6 6 0 0 0 1 62a1 1 0 0 0 1 1H32a1 1 0 0 0 1-1 6 6 0 0 0-3.06-5.22A5.22 5.22 0 0 0 30 56a6 6 0 0 0-2.43-4.81l-0.32-2.38a67.41 67.41 0 0 1 1.91-27A4 4 0 0 0 36 19a2.85 2.85 0 0 0 0-0.29A48.33 48.33 0 0 1 52.12 32.5ZM44.11 7a13 13 0 0 1 6.71 1.86l2.64 1.58a44.49 44.49 0 0 0-16.13 1.63 15.27 15.27 0 0 0-4.72 0.71A12.92 12.92 0 0 1 43.44 7ZM24.73 43H17.51c0.2-1.34 0.46-2.68 0.77-4h6.39C24.65 40.33 24.67 41.67 24.73 43Zm0-6H18.8c0.39-1.35 0.83-2.69 1.34-4H25C24.88 34.33 24.79 35.66 24.73 37Zm0.52-6H21c0.6-1.36 1.26-2.7 2-4h2.94C25.64 28.33 25.42 29.66 25.25 31Zm-1.13-6c0.64-1 1.33-2 2.05-3a3.85 3.85 0 0 0 0.91-0.15c-0.28 1.05-0.55 2.11-0.78 3.17ZM42 3h0.23l-1 0.35a22.8 22.8 0 0 0-9.36 6.32A11 11 0 0 1 42 3ZM18 3A11 11 0 0 1 28.12 9.68a22.72 22.72 0 0 0-9.38-6.33l-1-0.35ZM6.54 10.44L9.18 8.86A13 13 0 0 1 15.88 7h0.68a12.91 12.91 0 0 1 10.83 5.79 15 15 0 0 0-4.72-0.72A44.49 44.49 0 0 0 6.54 10.44ZM9.05 27.9l1-3.85a13.16 13.16 0 0 1 14.73-9.83 4 4 0 0 0-2.7 3.3A50.19 50.19 0 0 0 9.05 27.9ZM26 16a2 2 0 1 1-2 2A2 2 0 0 1 26 16Zm2.43 42.28A3.93 3.93 0 0 1 30.87 61H3.13A4 4 0 0 1 7 58h0.11l0.21 0a1 1 0 0 0 1-0.61 4 4 0 0 1 7-0.56 1 1 0 0 0 1.21 0.4 3.91 3.91 0 0 1 2.23-0.19 1 1 0 0 0 0.84-0.21 1 1 0 0 0 0.36-0.8A0.38 0.38 0 0 0 20 56h0a4 4 0 0 1 8 0 3.75 3.75 0 0 1-0.17 1.07A1 1 0 0 0 28.43 58.28ZM24 50a6 6 0 0 0-5.92 5 6.68 6.68 0 0 0-1.08 0.1V49.8a45.12 45.12 0 0 1 0.26-4.8h7.59c0.1 1.36 0.24 2.72 0.42 4.07l0.14 1.1A5.92 5.92 0 0 0 24 50ZM34 19a2 2 0 0 1-4 0l0.42-1.25A2 2 0 0 1 32 17a2.26 2.26 0 0 1 0.58 0.09l0.37 0.16A2 2 0 0 1 34 19Zm-0.06-3.47a3.22 3.22 0 0 0-0.68-0.31l-0.69-0.31A13.17 13.17 0 0 1 50 24.05l1 3.86A50.23 50.23 0 0 0 33.94 15.53Z" fill="#02321b" data-fill-palette-color="accent"></path><path d="M41.07 51.1a6.2 6.2 0 0 1 1.76-3.52l0.88-0.87-1.42-1.42-0.88 0.88a8.27 8.27 0 0 0-2.36 4.91 6 6 0 1 0 2 0ZM42.59 54a3.92 3.92 0 0 1-5.18 0A4 4 0 0 1 40 53 4 4 0 0 1 42.59 54ZM40 61a4 4 0 0 1-4-4 4.16 4.16 0 0 1 0.25-1.37 5.8 5.8 0 0 0 7.49 0A3.92 3.92 0 0 1 44 57 4 4 0 0 1 40 61Z" fill="#02321b" data-fill-palette-color="accent"></path><path d="M57 51a6 6 0 1 0 6 6A6 6 0 0 0 57 51Zm-4 6a4 4 0 0 1 4-4 3.83 3.83 0 0 1 1.36 0.26 5.82 5.82 0 0 0 0 7.48A3.83 3.83 0 0 1 57 61 4 4 0 0 1 53 57Zm7 2.59a3.8 3.8 0 0 1 0-5.18 3.91 3.91 0 0 1 0 5.18Z" fill="#02321b" data-fill-palette-color="accent"></path></svg></g></svg></g></svg></g></svg></g><path d="M200.59 88.533L200.59 23.559 0.508 23.559 0.508 223.641 200.59 223.641 200.59 158.667 198.305 158.667 198.305 221.356 2.794 221.356 2.794 25.844 198.305 25.844 198.305 88.533Z" fill="#ffffff" stroke="transparent" data-fill-palette-color="tertiary"></path></svg></g><defs></defs></svg><rect width="395.52" height="247.2" fill="none" stroke="none" visibility="hidden"></rect></g></svg></g></svg>